<mxfile host="65bd71144e">
    <diagram id="HA6eADRphkgbLUzCwhz0" name="Page-1">
        <mxGraphModel dx="1561" dy="1961" grid="1" gridSize="10" guides="1" tooltips="1" connect="1" arrows="1" fold="1" page="1" pageScale="1" pageWidth="827" pageHeight="1169" math="0" shadow="0">
            <root>
                <mxCell id="0"/>
                <mxCell id="1" parent="0"/>
                <mxCell id="10" value="Ansible inventory file" style="sketch=0;points=[[0,0,0],[0.25,0,0],[0.5,0,0],[0.75,0,0],[1,0,0],[1,0.25,0],[1,0.5,0],[1,0.75,0],[1,1,0],[0.75,1,0],[0.5,1,0],[0.25,1,0],[0,1,0],[0,0.75,0],[0,0.5,0],[0,0.25,0]];rounded=1;absoluteArcSize=1;arcSize=2;html=1;strokeColor=none;gradientColor=none;shadow=0;dashed=0;fontSize=12;fontColor=#9E9E9E;align=left;verticalAlign=top;spacing=10;spacingTop=-4;fillColor=#FFF8E1;" parent="1" vertex="1">
                    <mxGeometry x="40" y="480" width="480" height="160" as="geometry"/>
                </mxCell>
                <mxCell id="6" value="Controlplane" style="sketch=0;points=[[0,0,0],[0.25,0,0],[0.5,0,0],[0.75,0,0],[1,0,0],[1,0.25,0],[1,0.5,0],[1,0.75,0],[1,1,0],[0.75,1,0],[0.5,1,0],[0.25,1,0],[0,1,0],[0,0.75,0],[0,0.5,0],[0,0.25,0]];rounded=1;absoluteArcSize=1;arcSize=2;html=1;strokeColor=none;gradientColor=none;shadow=0;dashed=0;fontSize=12;fontColor=#9E9E9E;align=left;verticalAlign=top;spacing=10;spacingTop=-4;fillColor=#E1F5FE;" parent="1" vertex="1">
                    <mxGeometry x="120" y="80" width="160" height="360" as="geometry"/>
                </mxCell>
                <mxCell id="7" value="Workers" style="sketch=0;points=[[0,0,0],[0.25,0,0],[0.5,0,0],[0.75,0,0],[1,0,0],[1,0.25,0],[1,0.5,0],[1,0.75,0],[1,1,0],[0.75,1,0],[0.5,1,0],[0.25,1,0],[0,1,0],[0,0.75,0],[0,0.5,0],[0,0.25,0]];rounded=1;absoluteArcSize=1;arcSize=2;html=1;strokeColor=none;gradientColor=none;shadow=0;dashed=0;fontSize=12;fontColor=#9E9E9E;align=left;verticalAlign=top;spacing=10;spacingTop=-4;fillColor=#E0F2F1;" parent="1" vertex="1">
                    <mxGeometry x="360" y="80" width="160" height="360" as="geometry"/>
                </mxCell>
                <mxCell id="2" value="" style="image;html=1;image=img/lib/clip_art/computers/Server_128x128.png" parent="1" vertex="1">
                    <mxGeometry x="175" y="180" width="80" height="80" as="geometry"/>
                </mxCell>
                <mxCell id="8" value="Controlplane Group" style="sketch=0;aspect=fixed;pointerEvents=1;shadow=0;dashed=0;html=1;strokeColor=none;labelPosition=center;verticalLabelPosition=bottom;verticalAlign=top;align=center;fillColor=#00188D;shape=mxgraph.azure.file" parent="1" vertex="1">
                    <mxGeometry x="176.5" y="535" width="47" height="50" as="geometry"/>
                </mxCell>
                <mxCell id="9" value="Worker group" style="sketch=0;aspect=fixed;pointerEvents=1;shadow=0;dashed=0;html=1;strokeColor=none;labelPosition=center;verticalLabelPosition=bottom;verticalAlign=top;align=center;fillColor=#00188D;shape=mxgraph.azure.file" parent="1" vertex="1">
                    <mxGeometry x="420" y="535" width="47" height="50" as="geometry"/>
                </mxCell>
                <mxCell id="11" value="" style="endArrow=classic;html=1;" parent="1" source="6" target="8" edge="1">
                    <mxGeometry width="50" height="50" relative="1" as="geometry">
                        <mxPoint x="180" y="740" as="sourcePoint"/>
                        <mxPoint x="260" y="770" as="targetPoint"/>
                    </mxGeometry>
                </mxCell>
                <mxCell id="12" value="" style="endArrow=classic;html=1;" parent="1" source="7" target="9" edge="1">
                    <mxGeometry width="50" height="50" relative="1" as="geometry">
                        <mxPoint x="660" y="480" as="sourcePoint"/>
                        <mxPoint x="710" y="430" as="targetPoint"/>
                    </mxGeometry>
                </mxCell>
                <mxCell id="13" value="" style="image;html=1;image=img/lib/clip_art/computers/Server_128x128.png" parent="1" vertex="1">
                    <mxGeometry x="158.5" y="210" width="80" height="80" as="geometry"/>
                </mxCell>
                <mxCell id="14" value="" style="image;html=1;image=img/lib/clip_art/computers/Server_128x128.png" parent="1" vertex="1">
                    <mxGeometry x="145" y="240" width="80" height="80" as="geometry"/>
                </mxCell>
                <mxCell id="15" value="" style="image;html=1;image=img/lib/clip_art/computers/Server_128x128.png" parent="1" vertex="1">
                    <mxGeometry x="430" y="120" width="80" height="80" as="geometry"/>
                </mxCell>
                <mxCell id="16" value="" style="image;html=1;image=img/lib/clip_art/computers/Server_128x128.png" parent="1" vertex="1">
                    <mxGeometry x="413.5" y="150" width="80" height="80" as="geometry"/>
                </mxCell>
                <mxCell id="17" value="" style="image;html=1;image=img/lib/clip_art/computers/Server_128x128.png" parent="1" vertex="1">
                    <mxGeometry x="400" y="180" width="80" height="80" as="geometry"/>
                </mxCell>
                <mxCell id="18" value="" style="image;html=1;image=img/lib/clip_art/computers/Server_128x128.png" parent="1" vertex="1">
                    <mxGeometry x="418.5" y="280" width="80" height="80" as="geometry"/>
                </mxCell>
                <mxCell id="19" value="" style="image;html=1;image=img/lib/clip_art/computers/Server_128x128.png" parent="1" vertex="1">
                    <mxGeometry x="402" y="310" width="80" height="80" as="geometry"/>
                </mxCell>
                <mxCell id="20" value="" style="image;html=1;image=img/lib/clip_art/computers/Server_128x128.png" parent="1" vertex="1">
                    <mxGeometry x="388.5" y="340" width="80" height="80" as="geometry"/>
                </mxCell>
                <mxCell id="21" value="Objects" style="sketch=0;points=[[0,0,0],[0.25,0,0],[0.5,0,0],[0.75,0,0],[1,0,0],[1,0.25,0],[1,0.5,0],[1,0.75,0],[1,1,0],[0.75,1,0],[0.5,1,0],[0.25,1,0],[0,1,0],[0,0.75,0],[0,0.5,0],[0,0.25,0]];rounded=1;absoluteArcSize=1;arcSize=2;html=1;strokeColor=none;gradientColor=none;shadow=0;dashed=0;fontSize=12;fontColor=#9E9E9E;align=left;verticalAlign=top;spacing=10;spacingTop=-4;fillColor=#E0F2F1;" parent="1" vertex="1">
                    <mxGeometry x="520" y="80" width="160" height="360" as="geometry"/>
                </mxCell>
                <mxCell id="23" value="rook-ceph" style="sketch=0;html=1;dashed=0;whitespace=wrap;fillColor=#2875E2;strokeColor=#ffffff;points=[[0.005,0.63,0],[0.1,0.2,0],[0.9,0.2,0],[0.5,0,0],[0.995,0.63,0],[0.72,0.99,0],[0.5,1,0],[0.28,0.99,0]];verticalLabelPosition=bottom;align=center;verticalAlign=top;shape=mxgraph.kubernetes.icon;prIcon=ns" parent="1" vertex="1">
                    <mxGeometry x="530" y="356" width="50" height="48" as="geometry"/>
                </mxCell>
                <mxCell id="30" value="" style="ellipse;shape=cloud;whiteSpace=wrap;html=1;" parent="1" vertex="1">
                    <mxGeometry x="226.75" y="-210" width="180" height="110" as="geometry"/>
                </mxCell>
                <mxCell id="31" value="&lt;div style=&quot;text-align: justify;&quot;&gt;Services Network:&lt;/div&gt;&lt;div style=&quot;text-align: justify;&quot;&gt;- Network interface on bus&amp;nbsp;0000:00:02.0&lt;/div&gt;&lt;div style=&quot;text-align: justify;&quot;&gt;- Static adresses on 192.168.70.0/25&lt;/div&gt;" style="line;strokeWidth=4;html=1;perimeter=backbonePerimeter;points=[];outlineConnect=0;labelPosition=right;verticalLabelPosition=middle;align=left;verticalAlign=middle;" parent="1" vertex="1">
                    <mxGeometry x="123.5" y="-59" width="386.5" height="10" as="geometry"/>
                </mxCell>
                <mxCell id="32" value="" style="endArrow=none;html=1;entryX=0.25;entryY=0;entryDx=0;entryDy=0;entryPerimeter=0;" parent="1" source="31" target="7" edge="1">
                    <mxGeometry width="50" height="50" relative="1" as="geometry">
                        <mxPoint x="193.5" y="-120" as="sourcePoint"/>
                        <mxPoint x="403.5" y="20" as="targetPoint"/>
                    </mxGeometry>
                </mxCell>
                <mxCell id="33" value="" style="endArrow=none;html=1;" parent="1" source="31" target="30" edge="1">
                    <mxGeometry width="50" height="50" relative="1" as="geometry">
                        <mxPoint x="163.5" y="-100" as="sourcePoint"/>
                        <mxPoint x="213.5" y="-150" as="targetPoint"/>
                    </mxGeometry>
                </mxCell>
                <mxCell id="34" value="&lt;div style=&quot;text-align: justify;&quot;&gt;Management Network:&lt;/div&gt;&lt;div style=&quot;text-align: justify;&quot;&gt;- Network interface on bus&amp;nbsp;0000:00:01.0&lt;/div&gt;&lt;div style=&quot;text-align: justify;&quot;&gt;- DHCPâ€¯is enabled&amp;nbsp; on 192.168.64.0/24&lt;/div&gt;" style="line;strokeWidth=4;html=1;perimeter=backbonePerimeter;points=[];outlineConnect=0;fillColor=#f8cecc;strokeColor=#b85450;labelPosition=right;verticalLabelPosition=middle;align=left;verticalAlign=middle;" vertex="1" parent="1">
                    <mxGeometry x="200" y="10" width="310" height="10" as="geometry"/>
                </mxCell>
                <mxCell id="35" value="" style="endArrow=none;html=1;fillColor=#f8cecc;strokeColor=#b85450;exitX=0.75;exitY=0;exitDx=0;exitDy=0;exitPerimeter=0;" edge="1" parent="1" source="6" target="34">
                    <mxGeometry width="50" height="50" relative="1" as="geometry">
                        <mxPoint x="243.5" y="20" as="sourcePoint"/>
                        <mxPoint x="3.5" y="-30" as="targetPoint"/>
                    </mxGeometry>
                </mxCell>
                <mxCell id="36" value="" style="endArrow=none;html=1;fillColor=#f8cecc;strokeColor=#b85450;exitX=0.75;exitY=0;exitDx=0;exitDy=0;exitPerimeter=0;" edge="1" parent="1" source="7" target="34">
                    <mxGeometry width="50" height="50" relative="1" as="geometry">
                        <mxPoint x="483.5" y="20" as="sourcePoint"/>
                        <mxPoint x="-46.5" y="20" as="targetPoint"/>
                    </mxGeometry>
                </mxCell>
                <mxCell id="37" value="" style="endArrow=none;html=1;exitX=0.25;exitY=0;exitDx=0;exitDy=0;exitPerimeter=0;" edge="1" parent="1" source="6" target="31">
                    <mxGeometry width="50" height="50" relative="1" as="geometry">
                        <mxPoint x="163.5" y="20" as="sourcePoint"/>
                        <mxPoint x="-146.5" y="20" as="targetPoint"/>
                    </mxGeometry>
                </mxCell>
                <mxCell id="39" value="three-copies" style="sketch=0;html=1;dashed=0;whitespace=wrap;fillColor=#2875E2;strokeColor=#ffffff;points=[[0.005,0.63,0],[0.1,0.2,0],[0.9,0.2,0],[0.5,0,0],[0.995,0.63,0],[0.72,0.99,0],[0.5,1,0],[0.28,0.99,0]];verticalLabelPosition=bottom;align=center;verticalAlign=top;shape=mxgraph.kubernetes.icon;prIcon=sc" vertex="1" parent="1">
                    <mxGeometry x="615" y="356" width="50" height="48" as="geometry"/>
                </mxCell>
                <mxCell id="40" value="" style="endArrow=none;dashed=1;html=1;dashPattern=1 3;strokeWidth=2;entryX=0.005;entryY=0.63;entryDx=0;entryDy=0;entryPerimeter=0;exitX=0.995;exitY=0.63;exitDx=0;exitDy=0;exitPerimeter=0;" edge="1" parent="1" source="23" target="39">
                    <mxGeometry width="50" height="50" relative="1" as="geometry">
                        <mxPoint x="645" y="520" as="sourcePoint"/>
                        <mxPoint x="695" y="470" as="targetPoint"/>
                    </mxGeometry>
                </mxCell>
                <mxCell id="41" value="cilium L2" style="sketch=0;html=1;dashed=0;whitespace=wrap;fillColor=#2875E2;strokeColor=#ffffff;points=[[0.005,0.63,0],[0.1,0.2,0],[0.9,0.2,0],[0.5,0,0],[0.995,0.63,0],[0.72,0.99,0],[0.5,1,0],[0.28,0.99,0]];verticalLabelPosition=bottom;align=center;verticalAlign=top;shape=mxgraph.kubernetes.icon;prIcon=svc" vertex="1" parent="1">
                    <mxGeometry x="575" y="132" width="50" height="48" as="geometry"/>
                </mxCell>
            </root>
        </mxGraphModel>
    </diagram>
</mxfile>